<svg xmlns="http://www.w3.org/2000/svg" width="1000" height="305" viewBox="0 0 1000 305">
<rect width="1000" height="305" fill="white"/>
<style>text{font-family:Malgun Gothic,Arial,sans-serif;fill:#203747;font-size:13px}</style>
<text x="20" y="28" font-size="17">저장된 PC 일정: queue · seed 201 · 실현 간섭 1.5</text>
<text x="20" y="49">파랑 단독 · 주황 병행 · 회색 유휴 · 빨간 경계 = 동결 모형의 임의 전환 미검증</text>
<text x="20" y="103">CPU_URGENT</text>
<rect x="190.000" y="86" width="0.350" height="23" fill="#dce5e9"/>
<rect x="190.018" y="86" width="37.349" height="23" fill="#4886bc"/>
<line x1="190.018" x2="190.018" y1="83" y2="112" stroke="#9d3040" stroke-width="0.65"/>
<rect x="227.367" y="86" width="0.350" height="23" fill="#dce5e9"/>
<line x1="227.367" x2="227.367" y1="83" y2="112" stroke="#9d3040" stroke-width="0.65"/>
<rect x="227.385" y="86" width="10.205" height="23" fill="#4886bc"/>
<line x1="227.385" x2="227.385" y1="83" y2="112" stroke="#9d3040" stroke-width="0.65"/>
<rect x="237.590" y="86" width="0.350" height="23" fill="#dce5e9"/>
<line x1="237.590" x2="237.590" y1="83" y2="112" stroke="#9d3040" stroke-width="0.65"/>
<rect x="237.607" y="86" width="37.235" height="23" fill="#4886bc"/>
<line x1="237.607" x2="237.607" y1="83" y2="112" stroke="#9d3040" stroke-width="0.65"/>
<rect x="274.842" y="86" width="0.350" height="23" fill="#dce5e9"/>
<line x1="274.842" x2="274.842" y1="83" y2="112" stroke="#9d3040" stroke-width="0.65"/>
<rect x="274.860" y="86" width="10.482" height="23" fill="#4886bc"/>
<line x1="274.860" x2="274.860" y1="83" y2="112" stroke="#9d3040" stroke-width="0.65"/>
<rect x="285.341" y="86" width="0.350" height="23" fill="#dce5e9"/>
<line x1="285.341" x2="285.341" y1="83" y2="112" stroke="#9d3040" stroke-width="0.65"/>
<rect x="285.359" y="86" width="37.235" height="23" fill="#4886bc"/>
<line x1="285.359" x2="285.359" y1="83" y2="112" stroke="#9d3040" stroke-width="0.65"/>
<rect x="322.594" y="86" width="0.350" height="23" fill="#dce5e9"/>
<line x1="322.594" x2="322.594" y1="83" y2="112" stroke="#9d3040" stroke-width="0.65"/>
<rect x="322.611" y="86" width="10.803" height="23" fill="#4886bc"/>
<line x1="322.611" x2="322.611" y1="83" y2="112" stroke="#9d3040" stroke-width="0.65"/>
<rect x="333.414" y="86" width="0.350" height="23" fill="#dce5e9"/>
<line x1="333.414" x2="333.414" y1="83" y2="112" stroke="#9d3040" stroke-width="0.65"/>
<rect x="333.432" y="86" width="36.801" height="23" fill="#4886bc"/>
<line x1="333.432" x2="333.432" y1="83" y2="112" stroke="#9d3040" stroke-width="0.65"/>
<rect x="370.233" y="86" width="0.350" height="23" fill="#dce5e9"/>
<line x1="370.233" x2="370.233" y1="83" y2="112" stroke="#9d3040" stroke-width="0.65"/>
<rect x="370.251" y="86" width="10.803" height="23" fill="#4886bc"/>
<line x1="370.251" x2="370.251" y1="83" y2="112" stroke="#9d3040" stroke-width="0.65"/>
<rect x="381.054" y="86" width="0.350" height="23" fill="#dce5e9"/>
<line x1="381.054" x2="381.054" y1="83" y2="112" stroke="#9d3040" stroke-width="0.65"/>
<rect x="381.071" y="86" width="37.235" height="23" fill="#4886bc"/>
<line x1="381.071" x2="381.071" y1="83" y2="112" stroke="#9d3040" stroke-width="0.65"/>
<rect x="418.306" y="86" width="0.350" height="23" fill="#dce5e9"/>
<line x1="418.306" x2="418.306" y1="83" y2="112" stroke="#9d3040" stroke-width="0.65"/>
<rect x="418.324" y="86" width="10.803" height="23" fill="#4886bc"/>
<line x1="418.324" x2="418.324" y1="83" y2="112" stroke="#9d3040" stroke-width="0.65"/>
<rect x="429.127" y="86" width="0.350" height="23" fill="#dce5e9"/>
<line x1="429.127" x2="429.127" y1="83" y2="112" stroke="#9d3040" stroke-width="0.65"/>
<rect x="429.145" y="86" width="37.349" height="23" fill="#4886bc"/>
<line x1="429.145" x2="429.145" y1="83" y2="112" stroke="#9d3040" stroke-width="0.65"/>
<rect x="466.494" y="86" width="0.350" height="23" fill="#dce5e9"/>
<line x1="466.494" x2="466.494" y1="83" y2="112" stroke="#9d3040" stroke-width="0.65"/>
<rect x="466.512" y="86" width="10.205" height="23" fill="#4886bc"/>
<line x1="466.512" x2="466.512" y1="83" y2="112" stroke="#9d3040" stroke-width="0.65"/>
<rect x="476.717" y="86" width="0.350" height="23" fill="#dce5e9"/>
<line x1="476.717" x2="476.717" y1="83" y2="112" stroke="#9d3040" stroke-width="0.65"/>
<rect x="476.734" y="86" width="37.235" height="23" fill="#4886bc"/>
<line x1="476.734" x2="476.734" y1="83" y2="112" stroke="#9d3040" stroke-width="0.65"/>
<rect x="513.969" y="86" width="0.350" height="23" fill="#dce5e9"/>
<line x1="513.969" x2="513.969" y1="83" y2="112" stroke="#9d3040" stroke-width="0.65"/>
<rect x="513.987" y="86" width="37.349" height="23" fill="#4886bc"/>
<line x1="513.987" x2="513.987" y1="83" y2="112" stroke="#9d3040" stroke-width="0.65"/>
<rect x="551.336" y="86" width="0.350" height="23" fill="#dce5e9"/>
<line x1="551.336" x2="551.336" y1="83" y2="112" stroke="#9d3040" stroke-width="0.65"/>
<rect x="551.354" y="86" width="37.235" height="23" fill="#4886bc"/>
<line x1="551.354" x2="551.354" y1="83" y2="112" stroke="#9d3040" stroke-width="0.65"/>
<rect x="588.588" y="86" width="0.350" height="23" fill="#dce5e9"/>
<line x1="588.588" x2="588.588" y1="83" y2="112" stroke="#9d3040" stroke-width="0.65"/>
<rect x="588.606" y="86" width="36.801" height="23" fill="#4886bc"/>
<line x1="588.606" x2="588.606" y1="83" y2="112" stroke="#9d3040" stroke-width="0.65"/>
<rect x="625.407" y="86" width="0.350" height="23" fill="#dce5e9"/>
<line x1="625.407" x2="625.407" y1="83" y2="112" stroke="#9d3040" stroke-width="0.65"/>
<rect x="625.424" y="86" width="37.235" height="23" fill="#4886bc"/>
<line x1="625.424" x2="625.424" y1="83" y2="112" stroke="#9d3040" stroke-width="0.65"/>
<rect x="662.659" y="86" width="0.350" height="23" fill="#dce5e9"/>
<line x1="662.659" x2="662.659" y1="83" y2="112" stroke="#9d3040" stroke-width="0.65"/>
<rect x="662.677" y="86" width="36.801" height="23" fill="#4886bc"/>
<line x1="662.677" x2="662.677" y1="83" y2="112" stroke="#9d3040" stroke-width="0.65"/>
<rect x="699.477" y="86" width="0.350" height="23" fill="#dce5e9"/>
<line x1="699.477" x2="699.477" y1="83" y2="112" stroke="#9d3040" stroke-width="0.65"/>
<rect x="699.495" y="86" width="36.801" height="23" fill="#4886bc"/>
<line x1="699.495" x2="699.495" y1="83" y2="112" stroke="#9d3040" stroke-width="0.65"/>
<rect x="736.296" y="86" width="0.350" height="23" fill="#dce5e9"/>
<line x1="736.296" x2="736.296" y1="83" y2="112" stroke="#9d3040" stroke-width="0.65"/>
<rect x="736.314" y="86" width="37.235" height="23" fill="#4886bc"/>
<line x1="736.314" x2="736.314" y1="83" y2="112" stroke="#9d3040" stroke-width="0.65"/>
<rect x="773.548" y="86" width="0.350" height="23" fill="#dce5e9"/>
<line x1="773.548" x2="773.548" y1="83" y2="112" stroke="#9d3040" stroke-width="0.65"/>
<rect x="773.566" y="86" width="37.235" height="23" fill="#4886bc"/>
<line x1="773.566" x2="773.566" y1="83" y2="112" stroke="#9d3040" stroke-width="0.65"/>
<rect x="810.800" y="86" width="0.350" height="23" fill="#dce5e9"/>
<line x1="810.800" x2="810.800" y1="83" y2="112" stroke="#9d3040" stroke-width="0.65"/>
<rect x="810.818" y="86" width="37.235" height="23" fill="#4886bc"/>
<line x1="810.818" x2="810.818" y1="83" y2="112" stroke="#9d3040" stroke-width="0.65"/>
<rect x="848.053" y="86" width="0.350" height="23" fill="#dce5e9"/>
<line x1="848.053" x2="848.053" y1="83" y2="112" stroke="#9d3040" stroke-width="0.65"/>
<rect x="848.070" y="86" width="37.235" height="23" fill="#4886bc"/>
<line x1="848.070" x2="848.070" y1="83" y2="112" stroke="#9d3040" stroke-width="0.65"/>
<rect x="885.305" y="86" width="0.350" height="23" fill="#dce5e9"/>
<line x1="885.305" x2="885.305" y1="83" y2="112" stroke="#9d3040" stroke-width="0.65"/>
<rect x="885.323" y="86" width="36.801" height="23" fill="#4886bc"/>
<line x1="885.323" x2="885.323" y1="83" y2="112" stroke="#9d3040" stroke-width="0.65"/>
<rect x="922.123" y="86" width="34.877" height="23" fill="#dce5e9"/>
<line x1="922.123" x2="922.123" y1="83" y2="112" stroke="#9d3040" stroke-width="0.65"/>
<text x="20" y="160">B2_PC</text>
<rect x="190.000" y="143" width="0.350" height="23" fill="#dce5e9"/>
<rect x="190.018" y="143" width="11.800" height="23" fill="#4886bc"/>
<line x1="190.018" x2="190.018" y1="140" y2="169" stroke="#9d3040" stroke-width="0.65"/>
<rect x="201.818" y="143" width="26.544" height="23" fill="#f0ad4e"/>
<line x1="201.818" x2="201.818" y1="140" y2="169" stroke="#9d3040" stroke-width="0.65"/>
<rect x="228.362" y="143" width="6.073" height="23" fill="#4886bc"/>
<line x1="228.362" x2="228.362" y1="140" y2="169" stroke="#9d3040" stroke-width="0.65"/>
<rect x="234.435" y="143" width="0.350" height="23" fill="#dce5e9"/>
<line x1="234.435" x2="234.435" y1="140" y2="169" stroke="#9d3040" stroke-width="0.65"/>
<rect x="234.452" y="143" width="14.565" height="23" fill="#4886bc"/>
<line x1="234.452" x2="234.452" y1="140" y2="169" stroke="#9d3040" stroke-width="0.65"/>
<rect x="249.018" y="143" width="24.932" height="23" fill="#f0ad4e"/>
<line x1="249.018" x2="249.018" y1="140" y2="169" stroke="#9d3040" stroke-width="0.65"/>
<rect x="273.950" y="143" width="4.659" height="23" fill="#4886bc"/>
<line x1="273.950" x2="273.950" y1="140" y2="169" stroke="#9d3040" stroke-width="0.65"/>
<rect x="278.609" y="143" width="0.350" height="23" fill="#dce5e9"/>
<line x1="278.609" x2="278.609" y1="140" y2="169" stroke="#9d3040" stroke-width="0.65"/>
<rect x="278.627" y="143" width="17.591" height="23" fill="#4886bc"/>
<line x1="278.627" x2="278.627" y1="140" y2="169" stroke="#9d3040" stroke-width="0.65"/>
<rect x="296.218" y="143" width="26.544" height="23" fill="#f0ad4e"/>
<line x1="296.218" x2="296.218" y1="140" y2="169" stroke="#9d3040" stroke-width="0.65"/>
<rect x="322.762" y="143" width="0.350" height="23" fill="#4886bc"/>
<line x1="322.762" x2="322.762" y1="140" y2="169" stroke="#9d3040" stroke-width="0.65"/>
<rect x="322.929" y="143" width="0.350" height="23" fill="#dce5e9"/>
<line x1="322.929" x2="322.929" y1="140" y2="169" stroke="#9d3040" stroke-width="0.65"/>
<rect x="322.947" y="143" width="20.471" height="23" fill="#4886bc"/>
<line x1="322.947" x2="322.947" y1="140" y2="169" stroke="#9d3040" stroke-width="0.65"/>
<rect x="343.418" y="143" width="22.481" height="23" fill="#f0ad4e"/>
<line x1="343.418" x2="343.418" y1="140" y2="169" stroke="#9d3040" stroke-width="0.65"/>
<rect x="365.899" y="143" width="0.350" height="23" fill="#4886bc"/>
<line x1="365.899" x2="365.899" y1="140" y2="169" stroke="#9d3040" stroke-width="0.65"/>
<rect x="365.916" y="143" width="1.662" height="23" fill="#f0ad4e"/>
<line x1="365.916" x2="365.916" y1="140" y2="169" stroke="#9d3040" stroke-width="0.65"/>
<rect x="367.579" y="143" width="23.039" height="23" fill="#4886bc"/>
<line x1="367.579" x2="367.579" y1="140" y2="169" stroke="#9d3040" stroke-width="0.65"/>
<rect x="390.618" y="143" width="16.186" height="23" fill="#f0ad4e"/>
<line x1="390.618" x2="390.618" y1="140" y2="169" stroke="#9d3040" stroke-width="0.65"/>
<rect x="406.804" y="143" width="0.350" height="23" fill="#4886bc"/>
<line x1="406.804" x2="406.804" y1="140" y2="169" stroke="#9d3040" stroke-width="0.65"/>
<rect x="406.821" y="143" width="7.919" height="23" fill="#f0ad4e"/>
<line x1="406.821" x2="406.821" y1="140" y2="169" stroke="#9d3040" stroke-width="0.65"/>
<rect x="414.740" y="143" width="23.077" height="23" fill="#4886bc"/>
<line x1="414.740" x2="414.740" y1="140" y2="169" stroke="#9d3040" stroke-width="0.65"/>
<rect x="437.818" y="143" width="8.806" height="23" fill="#f0ad4e"/>
<line x1="437.818" x2="437.818" y1="140" y2="169" stroke="#9d3040" stroke-width="0.65"/>
<rect x="446.624" y="143" width="0.350" height="23" fill="#4886bc"/>
<line x1="446.624" x2="446.624" y1="140" y2="169" stroke="#9d3040" stroke-width="0.65"/>
<rect x="446.642" y="143" width="14.275" height="23" fill="#f0ad4e"/>
<line x1="446.642" x2="446.642" y1="140" y2="169" stroke="#9d3040" stroke-width="0.65"/>
<rect x="460.917" y="143" width="26.163" height="23" fill="#4886bc"/>
<line x1="460.917" x2="460.917" y1="140" y2="169" stroke="#9d3040" stroke-width="0.65"/>
<rect x="487.080" y="143" width="0.350" height="23" fill="#dce5e9"/>
<line x1="487.080" x2="487.080" y1="140" y2="169" stroke="#9d3040" stroke-width="0.65"/>
<rect x="487.098" y="143" width="37.349" height="23" fill="#4886bc"/>
<line x1="487.098" x2="487.098" y1="140" y2="169" stroke="#9d3040" stroke-width="0.65"/>
<rect x="524.447" y="143" width="0.350" height="23" fill="#dce5e9"/>
<line x1="524.447" x2="524.447" y1="140" y2="169" stroke="#9d3040" stroke-width="0.65"/>
<rect x="524.465" y="143" width="37.235" height="23" fill="#4886bc"/>
<line x1="524.465" x2="524.465" y1="140" y2="169" stroke="#9d3040" stroke-width="0.65"/>
<rect x="561.699" y="143" width="0.350" height="23" fill="#dce5e9"/>
<line x1="561.699" x2="561.699" y1="140" y2="169" stroke="#9d3040" stroke-width="0.65"/>
<rect x="561.717" y="143" width="36.801" height="23" fill="#4886bc"/>
<line x1="561.717" x2="561.717" y1="140" y2="169" stroke="#9d3040" stroke-width="0.65"/>
<rect x="598.518" y="143" width="0.350" height="23" fill="#dce5e9"/>
<line x1="598.518" x2="598.518" y1="140" y2="169" stroke="#9d3040" stroke-width="0.65"/>
<rect x="598.536" y="143" width="37.235" height="23" fill="#4886bc"/>
<line x1="598.536" x2="598.536" y1="140" y2="169" stroke="#9d3040" stroke-width="0.65"/>
<rect x="635.770" y="143" width="0.350" height="23" fill="#dce5e9"/>
<line x1="635.770" x2="635.770" y1="140" y2="169" stroke="#9d3040" stroke-width="0.65"/>
<rect x="635.788" y="143" width="36.801" height="23" fill="#4886bc"/>
<line x1="635.788" x2="635.788" y1="140" y2="169" stroke="#9d3040" stroke-width="0.65"/>
<rect x="672.589" y="143" width="0.350" height="23" fill="#dce5e9"/>
<line x1="672.589" x2="672.589" y1="140" y2="169" stroke="#9d3040" stroke-width="0.65"/>
<rect x="672.606" y="143" width="36.801" height="23" fill="#4886bc"/>
<line x1="672.606" x2="672.606" y1="140" y2="169" stroke="#9d3040" stroke-width="0.65"/>
<rect x="709.407" y="143" width="0.350" height="23" fill="#dce5e9"/>
<line x1="709.407" x2="709.407" y1="140" y2="169" stroke="#9d3040" stroke-width="0.65"/>
<rect x="709.425" y="143" width="37.235" height="23" fill="#4886bc"/>
<line x1="709.425" x2="709.425" y1="140" y2="169" stroke="#9d3040" stroke-width="0.65"/>
<rect x="746.659" y="143" width="0.350" height="23" fill="#dce5e9"/>
<line x1="746.659" x2="746.659" y1="140" y2="169" stroke="#9d3040" stroke-width="0.65"/>
<rect x="746.677" y="143" width="37.235" height="23" fill="#4886bc"/>
<line x1="746.677" x2="746.677" y1="140" y2="169" stroke="#9d3040" stroke-width="0.65"/>
<rect x="783.912" y="143" width="0.350" height="23" fill="#dce5e9"/>
<line x1="783.912" x2="783.912" y1="140" y2="169" stroke="#9d3040" stroke-width="0.65"/>
<rect x="783.929" y="143" width="37.235" height="23" fill="#4886bc"/>
<line x1="783.929" x2="783.929" y1="140" y2="169" stroke="#9d3040" stroke-width="0.65"/>
<rect x="821.164" y="143" width="0.350" height="23" fill="#dce5e9"/>
<line x1="821.164" x2="821.164" y1="140" y2="169" stroke="#9d3040" stroke-width="0.65"/>
<rect x="821.182" y="143" width="37.235" height="23" fill="#4886bc"/>
<line x1="821.182" x2="821.182" y1="140" y2="169" stroke="#9d3040" stroke-width="0.65"/>
<rect x="858.416" y="143" width="0.350" height="23" fill="#dce5e9"/>
<line x1="858.416" x2="858.416" y1="140" y2="169" stroke="#9d3040" stroke-width="0.65"/>
<rect x="858.434" y="143" width="36.801" height="23" fill="#4886bc"/>
<line x1="858.434" x2="858.434" y1="140" y2="169" stroke="#9d3040" stroke-width="0.65"/>
<rect x="895.235" y="143" width="61.765" height="23" fill="#dce5e9"/>
<line x1="895.235" x2="895.235" y1="140" y2="169" stroke="#9d3040" stroke-width="0.65"/>
<text x="20" y="217">B3_SOLO_EFT_PC</text>
<rect x="190.000" y="200" width="0.350" height="23" fill="#dce5e9"/>
<rect x="190.018" y="200" width="11.800" height="23" fill="#4886bc"/>
<line x1="190.018" x2="190.018" y1="197" y2="226" stroke="#9d3040" stroke-width="0.65"/>
<rect x="201.818" y="200" width="26.544" height="23" fill="#f0ad4e"/>
<line x1="201.818" x2="201.818" y1="197" y2="226" stroke="#9d3040" stroke-width="0.65"/>
<rect x="228.362" y="200" width="0.350" height="23" fill="#4886bc"/>
<line x1="228.362" x2="228.362" y1="197" y2="226" stroke="#9d3040" stroke-width="0.65"/>
<rect x="228.380" y="200" width="6.917" height="23" fill="#f0ad4e"/>
<line x1="228.380" x2="228.380" y1="197" y2="226" stroke="#9d3040" stroke-width="0.65"/>
<rect x="235.297" y="200" width="0.350" height="23" fill="#4886bc"/>
<line x1="235.297" x2="235.297" y1="197" y2="226" stroke="#9d3040" stroke-width="0.65"/>
<rect x="235.315" y="200" width="53.581" height="23" fill="#f0ad4e"/>
<line x1="235.315" x2="235.315" y1="197" y2="226" stroke="#9d3040" stroke-width="0.65"/>
<rect x="288.896" y="200" width="0.350" height="23" fill="#4886bc"/>
<line x1="288.896" x2="288.896" y1="197" y2="226" stroke="#9d3040" stroke-width="0.65"/>
<rect x="288.913" y="200" width="13.333" height="23" fill="#f0ad4e"/>
<line x1="288.913" x2="288.913" y1="197" y2="226" stroke="#9d3040" stroke-width="0.65"/>
<rect x="302.246" y="200" width="0.350" height="23" fill="#4886bc"/>
<line x1="302.246" x2="302.246" y1="197" y2="226" stroke="#9d3040" stroke-width="0.65"/>
<rect x="302.264" y="200" width="13.618" height="23" fill="#f0ad4e"/>
<line x1="302.264" x2="302.264" y1="197" y2="226" stroke="#9d3040" stroke-width="0.65"/>
<rect x="315.882" y="200" width="0.350" height="23" fill="#4886bc"/>
<line x1="315.882" x2="315.882" y1="197" y2="226" stroke="#9d3040" stroke-width="0.65"/>
<rect x="315.900" y="200" width="1.998" height="23" fill="#f0ad4e"/>
<line x1="315.900" x2="315.900" y1="197" y2="226" stroke="#9d3040" stroke-width="0.65"/>
<rect x="317.897" y="200" width="0.350" height="23" fill="#4886bc"/>
<line x1="317.897" x2="317.897" y1="197" y2="226" stroke="#9d3040" stroke-width="0.65"/>
<rect x="317.915" y="200" width="49.665" height="23" fill="#f0ad4e"/>
<line x1="317.915" x2="317.915" y1="197" y2="226" stroke="#9d3040" stroke-width="0.65"/>
<rect x="367.580" y="200" width="0.350" height="23" fill="#4886bc"/>
<line x1="367.580" x2="367.580" y1="197" y2="226" stroke="#9d3040" stroke-width="0.65"/>
<rect x="367.598" y="200" width="13.618" height="23" fill="#f0ad4e"/>
<line x1="367.598" x2="367.598" y1="197" y2="226" stroke="#9d3040" stroke-width="0.65"/>
<rect x="381.216" y="200" width="0.350" height="23" fill="#4886bc"/>
<line x1="381.216" x2="381.216" y1="197" y2="226" stroke="#9d3040" stroke-width="0.65"/>
<rect x="381.233" y="200" width="30.570" height="23" fill="#f0ad4e"/>
<line x1="381.233" x2="381.233" y1="197" y2="226" stroke="#9d3040" stroke-width="0.65"/>
<rect x="411.803" y="200" width="14.000" height="23" fill="#4886bc"/>
<line x1="411.803" x2="411.803" y1="197" y2="226" stroke="#9d3040" stroke-width="0.65"/>
<rect x="425.804" y="200" width="1.392" height="23" fill="#f0ad4e"/>
<line x1="425.804" x2="425.804" y1="197" y2="226" stroke="#9d3040" stroke-width="0.65"/>
<rect x="427.195" y="200" width="0.350" height="23" fill="#4886bc"/>
<line x1="427.195" x2="427.195" y1="197" y2="226" stroke="#9d3040" stroke-width="0.65"/>
<rect x="427.213" y="200" width="24.774" height="23" fill="#f0ad4e"/>
<line x1="427.213" x2="427.213" y1="197" y2="226" stroke="#9d3040" stroke-width="0.65"/>
<rect x="451.986" y="200" width="0.350" height="23" fill="#4886bc"/>
<line x1="451.986" x2="451.986" y1="197" y2="226" stroke="#9d3040" stroke-width="0.65"/>
<rect x="452.004" y="200" width="25.389" height="23" fill="#f0ad4e"/>
<line x1="452.004" x2="452.004" y1="197" y2="226" stroke="#9d3040" stroke-width="0.65"/>
<rect x="477.394" y="200" width="0.350" height="23" fill="#4886bc"/>
<line x1="477.394" x2="477.394" y1="197" y2="226" stroke="#9d3040" stroke-width="0.65"/>
<rect x="477.411" y="200" width="0.697" height="23" fill="#f0ad4e"/>
<line x1="477.411" x2="477.411" y1="197" y2="226" stroke="#9d3040" stroke-width="0.65"/>
<rect x="478.108" y="200" width="0.350" height="23" fill="#4886bc"/>
<line x1="478.108" x2="478.108" y1="197" y2="226" stroke="#9d3040" stroke-width="0.65"/>
<rect x="478.126" y="200" width="53.581" height="23" fill="#f0ad4e"/>
<line x1="478.126" x2="478.126" y1="197" y2="226" stroke="#9d3040" stroke-width="0.65"/>
<rect x="531.707" y="200" width="0.350" height="23" fill="#4886bc"/>
<line x1="531.707" x2="531.707" y1="197" y2="226" stroke="#9d3040" stroke-width="0.65"/>
<rect x="531.725" y="200" width="41.919" height="23" fill="#f0ad4e"/>
<line x1="531.725" x2="531.725" y1="197" y2="226" stroke="#9d3040" stroke-width="0.65"/>
<rect x="573.644" y="200" width="0.350" height="23" fill="#4886bc"/>
<line x1="573.644" x2="573.644" y1="197" y2="226" stroke="#9d3040" stroke-width="0.65"/>
<rect x="573.661" y="200" width="8.882" height="23" fill="#f0ad4e"/>
<line x1="573.661" x2="573.661" y1="197" y2="226" stroke="#9d3040" stroke-width="0.65"/>
<rect x="582.543" y="200" width="0.350" height="23" fill="#4886bc"/>
<line x1="582.543" x2="582.543" y1="197" y2="226" stroke="#9d3040" stroke-width="0.65"/>
<rect x="582.561" y="200" width="53.091" height="23" fill="#f0ad4e"/>
<line x1="582.561" x2="582.561" y1="197" y2="226" stroke="#9d3040" stroke-width="0.65"/>
<rect x="635.652" y="200" width="0.350" height="23" fill="#4886bc"/>
<line x1="635.652" x2="635.652" y1="197" y2="226" stroke="#9d3040" stroke-width="0.65"/>
<rect x="635.670" y="200" width="31.279" height="23" fill="#f0ad4e"/>
<line x1="635.670" x2="635.670" y1="197" y2="226" stroke="#9d3040" stroke-width="0.65"/>
<rect x="666.949" y="200" width="13.170" height="23" fill="#4886bc"/>
<line x1="666.949" x2="666.949" y1="197" y2="226" stroke="#9d3040" stroke-width="0.65"/>
<rect x="680.120" y="200" width="1.365" height="23" fill="#f0ad4e"/>
<line x1="680.120" x2="680.120" y1="197" y2="226" stroke="#9d3040" stroke-width="0.65"/>
<rect x="681.485" y="200" width="0.350" height="23" fill="#4886bc"/>
<line x1="681.485" x2="681.485" y1="197" y2="226" stroke="#9d3040" stroke-width="0.65"/>
<rect x="681.502" y="200" width="53.581" height="23" fill="#f0ad4e"/>
<line x1="681.502" x2="681.502" y1="197" y2="226" stroke="#9d3040" stroke-width="0.65"/>
<rect x="735.083" y="200" width="0.350" height="23" fill="#4886bc"/>
<line x1="735.083" x2="735.083" y1="197" y2="226" stroke="#9d3040" stroke-width="0.65"/>
<rect x="735.101" y="200" width="40.759" height="23" fill="#f0ad4e"/>
<line x1="735.101" x2="735.101" y1="197" y2="226" stroke="#9d3040" stroke-width="0.65"/>
<rect x="775.860" y="200" width="0.350" height="23" fill="#4886bc"/>
<line x1="775.860" x2="775.860" y1="197" y2="226" stroke="#9d3040" stroke-width="0.65"/>
<rect x="775.877" y="200" width="10.284" height="23" fill="#f0ad4e"/>
<line x1="775.877" x2="775.877" y1="197" y2="226" stroke="#9d3040" stroke-width="0.65"/>
<rect x="786.161" y="200" width="0.350" height="23" fill="#4886bc"/>
<line x1="786.161" x2="786.161" y1="197" y2="226" stroke="#9d3040" stroke-width="0.65"/>
<rect x="786.179" y="200" width="53.091" height="23" fill="#f0ad4e"/>
<line x1="786.179" x2="786.179" y1="197" y2="226" stroke="#9d3040" stroke-width="0.65"/>
<rect x="839.270" y="200" width="22.230" height="23" fill="#4886bc"/>
<line x1="839.270" x2="839.270" y1="197" y2="226" stroke="#9d3040" stroke-width="0.65"/>
<rect x="861.500" y="200" width="95.500" height="23" fill="#dce5e9"/>
<line x1="861.500" x2="861.500" y1="197" y2="226" stroke="#9d3040" stroke-width="0.65"/>
<line x1="190" x2="190" y1="76" y2="254" stroke="#e9edef" stroke-width="0.5"/>
<text x="185" y="272">0</text>
<line x1="249" x2="249" y1="76" y2="254" stroke="#e9edef" stroke-width="0.5"/>
<text x="244" y="272">1</text>
<line x1="308" x2="308" y1="76" y2="254" stroke="#e9edef" stroke-width="0.5"/>
<text x="303" y="272">2</text>
<line x1="367" x2="367" y1="76" y2="254" stroke="#e9edef" stroke-width="0.5"/>
<text x="362" y="272">3</text>
<line x1="426" x2="426" y1="76" y2="254" stroke="#e9edef" stroke-width="0.5"/>
<text x="421" y="272">4</text>
<line x1="485" x2="485" y1="76" y2="254" stroke="#e9edef" stroke-width="0.5"/>
<text x="480" y="272">5</text>
<line x1="544" x2="544" y1="76" y2="254" stroke="#e9edef" stroke-width="0.5"/>
<text x="539" y="272">6</text>
<line x1="603" x2="603" y1="76" y2="254" stroke="#e9edef" stroke-width="0.5"/>
<text x="598" y="272">7</text>
<line x1="662" x2="662" y1="76" y2="254" stroke="#e9edef" stroke-width="0.5"/>
<text x="657" y="272">8</text>
<line x1="721" x2="721" y1="76" y2="254" stroke="#e9edef" stroke-width="0.5"/>
<text x="716" y="272">9</text>
<line x1="780" x2="780" y1="76" y2="254" stroke="#e9edef" stroke-width="0.5"/>
<text x="775" y="272">10</text>
<line x1="839" x2="839" y1="76" y2="254" stroke="#e9edef" stroke-width="0.5"/>
<text x="834" y="272">11</text>
<line x1="898" x2="898" y1="76" y2="254" stroke="#e9edef" stroke-width="0.5"/>
<text x="893" y="272">12</text>
<line x1="957" x2="957" y1="76" y2="254" stroke="#e9edef" stroke-width="0.5"/>
<text x="952" y="272">13</text>
<text x="20" y="296">표시 0–13초 / 원래 공통창 120초. 색은 계측 지원·J·AP 예측값이 아님.</text></svg>
